HIERARCHY
ROOT hip
{
	OFFSET 0.000000 0.000000 0.000000
	CHANNELS 6 Xposition Yposition Zposition Xrotation Zrotation Yrotation 
	JOINT abdomen
	{
		OFFSET 0.000000 3.422050 0.000000
		CHANNELS 3 Xrotation Zrotation Yrotation 
		JOINT chest
		{
			OFFSET 0.000000 8.486693 -0.684411
			CHANNELS 3 Xrotation Zrotation Yrotation 
			JOINT neck
			{
				OFFSET 0.000000 10.266162 -0.273764
				CHANNELS 3 Xrotation Zrotation Yrotation 
				JOINT head
				{
					OFFSET 0.000000 3.148285 0.000000
					CHANNELS 3 Xrotation Zrotation Yrotation 
					End Site
					{
						OFFSET 0.000000 3.148289 0.000000
					}
				}
			}
			JOINT lCollar
			{
				OFFSET 3.422053 6.707223 -0.821293
				CHANNELS 3 Yrotation Zrotation Xrotation 
				JOINT lShldr
				{
					OFFSET 3.285171 0.000000 0.000000
					CHANNELS 3 Zrotation Yrotation Xrotation 
					JOINT lForeArm
					{
						OFFSET 10.129278 0.000000 0.000000
						CHANNELS 3 Yrotation Zrotation Xrotation 
						JOINT lHand
						{
							OFFSET 8.486692 0.000000 0.000000
							CHANNELS 3 Zrotation Yrotation Xrotation 
							End Site
							{
								OFFSET 4.106464 0.000000 0.000000
							}
						}
					}
				}
			}
			JOINT rCollar
			{
				OFFSET -3.558935 6.707223 -0.821293
				CHANNELS 3 Yrotation Zrotation Xrotation 
				JOINT rShldr
				{
					OFFSET -3.148289 0.000000 0.000000
					CHANNELS 3 Zrotation Yrotation Xrotation 
					JOINT rForeArm
					{
						OFFSET -10.266159 0.000000 0.000000
						CHANNELS 3 Yrotation Zrotation Xrotation 
						JOINT rHand
						{
							OFFSET -8.349810 0.000000 0.000000
							CHANNELS 3 Zrotation Yrotation Xrotation 
							End Site
							{
								OFFSET -4.106464 0.000000 0.000000
							}
						}
					}
				}
			}
		}
	}
	JOINT lThigh
	{
		OFFSET 5.338403 -1.642589 1.368821
		CHANNELS 3 Xrotation Zrotation Yrotation 
		JOINT lShin
		{
			OFFSET -2.053232 -20.121670 0.000000
			CHANNELS 3 Xrotation Zrotation Yrotation 
			JOINT lFoot
			{
				OFFSET 0.000000 -19.300380 -1.231939
				CHANNELS 3 Xrotation Yrotation Zrotation 
				End Site
				{
					OFFSET 0.000000 -2.463878 4.653993
				}
			}
		}
	}
	JOINT rThigh
	{
		OFFSET -5.338403 -1.642589 1.368821
		CHANNELS 3 Xrotation Zrotation Yrotation 
		JOINT rShin
		{
			OFFSET 2.053232 -20.121670 0.000000
			CHANNELS 3 Xrotation Zrotation Yrotation 
			JOINT rFoot
			{
				OFFSET 0.000000 -19.300380 -1.231939
				CHANNELS 3 Xrotation Yrotation Zrotation 
				End Site
				{
					OFFSET 0.000000 -2.463878 4.653993
				}
			}
		}
	}
}
MOTION
Frames: 18
Frame Time: 0.033264
0.820027 30.730169 2.201885 26.650311 0.000000 0.000000 3.695842 0.610374 -0.240091 -13.336077 0.569186 -1.136742 19.725649 0.000000 0.000000 -37.689987 5.098076 -0.622347 -27.598747 -11.432606 -16.870739 -38.692852 11.771340 59.299934 -20.374245 -3.816298 0.824047 30.385046 -31.653934 -7.538860 -35.217072 10.062240 7.040028 79.325569 78.069923 -12.860845 102.323013 45.568459 -21.563360 28.761465 11.453995 -37.237530 -23.340721 63.205296 -3.664587 82.472496 0.048163 -0.442500 66.996048 14.255177 -33.098766 -23.618345 -63.294235 3.984494 82.473686 -0.068038 0.438340 67.014297 -14.246799 33.148365 
0.820027 30.760807 2.126942 27.303095 0.000000 0.000000 3.495743 0.610357 -0.240093 -13.887754 0.569234 -1.136742 18.966610 0.000000 0.000000 -38.123837 5.062627 -0.607685 -27.446873 -11.716549 -16.629726 -38.692852 11.771340 59.299934 -20.145411 -3.761130 0.844355 30.581316 -31.887644 -7.611426 -35.505402 10.071530 7.221602 80.043907 78.029404 -12.132687 102.323013 45.568459 -21.563360 28.827408 11.530983 -37.202431 -24.619698 62.812981 -4.568748 82.730995 0.057083 -0.440658 67.177010 14.123975 -33.598156 -24.911140 -62.907860 4.900026 82.731613 -0.076731 0.435944 67.194107 -14.116763 33.643318 
0.820027 30.791445 2.052000 27.955795 0.000000 0.000000 3.295645 0.610339 -0.240094 -14.439384 0.569283 -1.136743 18.207005 0.000000 0.000000 -38.556992 5.027343 -0.592778 -27.293623 -11.999846 -16.387701 -38.692852 11.771340 59.299934 -19.916620 -3.705881 0.864440 30.778421 -32.121120 -7.685119 -35.793762 10.079922 7.403219 80.757278 77.987007 -11.409502 102.323013 45.568459 -21.563360 28.893419 11.607934 -37.167225 -25.867884 62.411736 -5.441592 82.989494 0.065995 -0.438775 67.356659 13.991269 -34.096802 -26.173235 -62.512482 5.784282 82.989555 -0.085413 0.433508 67.372612 -13.985242 34.137516 
0.820027 30.822083 1.977057 28.608368 0.000000 0.000000 3.095552 0.610321 -0.240096 -14.990937 0.569331 -1.136745 17.446896 0.000000 0.000000 -38.989471 4.992228 -0.577629 -27.139004 -12.282494 -16.144665 -38.692852 11.771340 59.299934 -19.687859 -3.650553 0.884302 30.976383 -32.354374 -7.759950 -36.082134 10.087411 7.584874 81.465500 77.942757 -10.691474 102.323013 45.568459 -21.563360 28.959486 11.684841 -37.131912 -27.085951 62.002148 -6.283743 83.248016 0.074898 -0.436853 67.535004 13.857066 -34.594666 -27.405136 -62.108421 6.637804 83.247459 -0.094083 0.431034 67.549843 -13.852246 34.630962 
0.820027 30.852722 1.902114 29.260769 0.000000 0.000000 2.895464 0.610303 -0.240097 -15.542382 0.569379 -1.136747 16.686350 0.000000 0.000000 -39.421249 4.957281 -0.562239 -26.982998 -12.564463 -15.900602 -38.692852 11.771340 59.299934 -19.459148 -3.595150 0.903941 31.175220 -32.587406 -7.835929 -36.370514 10.093997 7.766556 82.168411 77.896683 -9.978763 102.323013 45.568459 -21.563360 29.025627 11.761709 -37.096516 -28.274473 61.584484 -7.095841 83.506477 0.083792 -0.434890 67.712006 13.721387 -35.091736 -28.607510 -61.696205 7.461248 83.505386 -0.102742 0.428521 67.725754 -13.717798 35.123623 
0.820027 30.883360 1.827172 29.912960 0.000000 0.000000 2.695382 0.610285 -0.240099 -16.093706 0.569428 -1.136750 15.925438 0.000000 0.000000 -39.852325 4.922507 -0.546611 -26.825607 -12.845751 -15.655511 -38.692852 11.771340 59.299934 -19.230474 -3.539671 0.923355 31.374918 -32.820194 -7.913061 -36.658909 10.099688 7.948261 82.865753 77.848686 -9.271504 102.323013 45.568459 -21.563360 29.091835 11.838537 -37.061008 -29.434193 61.159283 -7.878594 83.764961 0.092677 -0.432888 67.887657 13.584246 -35.587986 -29.780968 -61.276196 8.255245 83.763290 -0.111390 0.425969 67.900322 -13.581908 35.615471 
0.820027 30.913998 1.752229 30.564905 0.000000 0.000000 2.495306 0.610267 -0.240100 -16.644875 0.569476 -1.136753 15.164226 0.000000 0.000000 -40.282688 4.887908 -0.530748 -26.666830 -13.126342 -15.409385 -38.692852 11.771340 59.299934 -19.001848 -3.484118 0.942546 31.575514 -33.052738 -7.991361 -36.947292 10.104474 8.129979 83.557587 77.798996 -8.569882 102.323013 45.568459 -21.563360 29.158106 11.915324 -37.025406 -30.565811 60.726906 -8.632713 84.023415 0.101552 -0.430845 68.061928 13.445662 -36.083397 -30.926199 -60.848797 9.020489 84.021172 -0.120025 0.423378 68.073563 -13.444606 36.106510 
0.820027 30.944635 1.677286 31.216543 0.000000 0.000000 2.295240 0.610250 -0.240101 -17.195864 0.569525 -1.136757 14.402776 0.000000 0.000000 -40.712307 4.853484 -0.514652 -26.506653 -13.406221 -15.162214 -38.692852 11.771340 59.299934 -18.773264 -3.428491 0.961513 31.776999 -33.285027 -8.070831 -37.235676 10.108360 8.311705 84.243622 77.747475 -7.873985 102.323013 45.568459 -21.563360 29.224447 11.992071 -36.989700 -31.670048 60.287731 -9.358943 84.281868 0.110417 -0.428763 68.234825 13.305671 -36.577965 -32.043949 -60.414471 9.757714 84.279030 -0.128648 0.420748 68.245422 -13.305897 36.596699 
0.820027 30.975275 1.602344 31.867846 0.000000 0.000000 2.095183 0.610232 -0.240102 -17.746649 0.569573 -1.136760 13.641153 0.000000 0.000000 -41.141209 4.819242 -0.498327 -26.345074 -13.685370 -14.913990 -38.692852 11.771340 59.299934 -18.544729 -3.372794 0.980254 31.979383 -33.517052 -8.151487 -37.524017 10.111344 8.493424 84.923790 77.694229 -7.183974 102.323013 45.568459 -21.563360 29.290857 12.068775 -36.953899 -32.747643 59.842136 -10.058029 84.540298 0.119271 -0.426640 68.406311 13.164268 -37.071644 -33.134895 -59.973530 10.467627 84.536873 -0.137258 0.418080 68.415924 -13.165812 37.086033 
0.820027 31.005913 1.527401 32.518772 0.000000 0.000000 1.895138 0.610214 -0.240104 -18.297209 0.569621 -1.136765 12.879436 0.000000 0.000000 -41.569344 4.785179 -0.481774 -26.182093 -13.963779 -14.664712 -38.692852 11.771339 59.299934 -18.316236 -3.317025 0.998770 32.182690 -33.748817 -8.233338 -37.812340 10.113429 8.675136 85.598076 77.639328 -6.499954 102.323013 45.568459 -21.563360 29.357334 12.145437 -36.917992 -33.799366 59.390484 -10.730742 84.798668 0.128116 -0.424478 68.576393 13.021480 -37.564430 -34.199772 -59.526337 11.150979 84.794693 -0.145855 0.415373 68.585030 -13.024364 37.574490 
0.820027 31.036551 1.452459 33.169277 0.000000 0.000000 1.695105 0.610196 -0.240105 -18.847513 0.569669 -1.136770 12.117684 0.000000 0.000000 -41.996735 4.751300 -0.464997 -26.017702 -14.241435 -14.414370 -38.692852 11.771340 59.299934 -18.087799 -3.261189 1.017061 32.386917 -33.980312 -8.316390 -38.100636 10.114614 8.856831 86.266098 77.582634 -5.822082 102.323013 45.568459 -21.563360 29.423872 12.222056 -36.881981 -34.825977 58.933155 -11.377843 85.057060 0.136949 -0.422277 68.745049 12.877337 -38.056316 -35.239368 -59.073303 11.808535 85.052498 -0.154439 0.412629 68.752731 -12.881571 38.062054 
0.820027 31.067188 1.377516 33.819324 0.000000 0.000000 1.495085 0.610179 -0.240106 -19.397533 0.569718 -1.136775 11.355963 0.000000 0.000000 -42.423359 4.717607 -0.447998 -25.851900 -14.518326 -14.162957 -38.692852 11.771340 59.299934 -17.859413 -3.205287 1.035127 32.592079 -34.211514 -8.400652 -38.388882 10.114898 9.038499 86.927910 77.524223 -5.150386 102.323013 45.568459 -21.563360 29.490479 12.298635 -36.845871 -35.828220 58.470451 -12.000100 85.315407 0.145772 -0.420036 68.912247 12.731847 -38.547264 -36.254383 -58.614731 12.441027 85.310265 -0.163010 0.409845 68.919029 -12.737452 38.548702 
0.820027 31.097826 1.302573 34.468853 0.000000 0.000000 1.295079 0.610161 -0.240107 -19.947250 0.569766 -1.136781 10.594346 0.000000 0.000000 -42.849205 4.684100 -0.430779 -25.684668 -14.794424 -13.910462 -38.692852 11.771340 59.299934 -17.631083 -3.149318 1.052966 32.798187 -34.442436 -8.486139 -38.677071 10.114283 9.220133 87.583504 77.464241 -4.484997 102.323013 45.568459 -21.563360 29.557156 12.375169 -36.809658 -36.806866 58.002720 -12.598269 85.573708 0.154583 -0.417755 69.077995 12.585036 -39.037262 -37.245598 -58.150974 13.049227 85.568008 -0.171567 0.407024 69.083878 -12.592033 39.034424 
0.820027 31.128466 1.227631 35.117851 0.000000 0.000000 1.095090 0.610143 -0.240108 -20.496637 0.569813 -1.136787 9.832895 0.000000 0.000000 -43.274269 4.650783 -0.413344 -25.516016 -15.069730 -13.656888 -38.692852 11.771340 59.299934 -17.402805 -3.093285 1.070579 33.005264 -34.673069 -8.572860 -38.965202 10.112767 9.401726 88.232689 77.402596 -3.825987 102.323013 45.568459 -21.563360 29.623903 12.451661 -36.773346 -37.762657 57.530266 -13.173116 85.831993 0.163383 -0.415435 69.242279 12.436927 -39.526314 -38.213722 -57.682343 13.633854 85.825714 -0.180110 0.404164 69.247292 -12.445322 39.519196 
0.820027 31.159103 1.152688 35.766254 0.000000 0.000000 0.895117 0.610125 -0.240108 -21.045673 0.569861 -1.136794 9.071679 0.000000 0.000000 -43.698536 4.617656 -0.395695 -25.345942 -15.344227 -13.402225 -38.692852 11.771340 59.299934 -17.174583 -3.037188 1.087965 33.213287 -34.903389 -8.660821 -39.253273 10.110357 9.583273 88.875389 77.339333 -3.173450 102.323013 45.568459 -21.563360 29.690714 12.528111 -36.736942 -38.696304 57.053375 -13.725362 86.090240 0.172171 -0.413076 69.405075 12.287531 -40.014370 -39.159481 -57.209110 14.195660 86.083382 -0.188640 0.401267 69.409256 -12.297357 40.003010 
0.820027 31.189741 1.077746 36.414032 0.000000 0.000000 0.695163 0.610107 -0.240109 -21.594320 0.569909 -1.136801 8.310768 0.000000 0.000000 -44.122005 4.584723 -0.377836 -25.174427 -15.617893 -13.146461 -38.692852 11.771340 59.299934 -16.946423 -2.981030 1.105124 33.422310 -35.133411 -8.750037 -39.541256 10.107043 9.764759 89.511581 77.274490 -2.527419 102.323013 45.568459 -21.563360 29.757595 12.604518 -36.700424 -39.608559 56.572380 -14.255752 86.348442 0.180947 -0.410677 69.566376 12.136880 -40.501434 -40.083611 -56.731625 14.735370 86.341003 -0.197154 0.398332 69.569763 -12.148144 40.485859 
0.820027 31.220379 1.002803 37.061153 0.000000 0.000000 0.495228 0.610089 -0.240110 -22.142572 0.569957 -1.136809 7.550223 0.000000 0.000000 -44.544643 4.551982 -0.359767 -25.001482 -15.890727 -12.889599 -38.692848 11.771341 59.299927 -16.718313 -2.924812 1.122056 33.632313 -35.363117 -8.840515 -39.829166 10.102838 9.946183 90.141167 77.208069 -1.887987 102.323013 45.568459 -21.563360 29.824541 12.680880 -36.663815 -40.500111 56.087513 -14.764999 86.606598 0.189710 -0.408240 69.726189 11.984989 -40.987499 -40.986813 -56.250145 15.253695 86.598587 -0.205654 0.395359 69.728775 -11.997703 40.967697 
0.820027 31.251019 0.927860 37.707554 0.000000 0.000000 0.295315 0.610071 -0.240111 -22.690392 0.570004 -1.136817 6.790118 0.000000 0.000000 -44.966480 4.519441 -0.341494 -24.827089 -16.162699 -12.631622 -38.692852 11.771340 59.299934 -16.490267 -2.868534 1.138760 33.843311 -35.592495 -8.932268 -40.116974 10.097735 10.127535 90.764160 77.140175 -1.255214 102.323013 45.568459 -21.563360 29.891556 12.757196 -36.627094 -41.371681 55.599094 -15.253811 86.864731 0.198461 -0.405763 69.884468 11.831877 -41.472527 -41.869762 -55.764931 15.751331 86.856148 -0.214139 0.392348 69.886307 -11.846064 41.448540 
